<?xml version="1.0" standalone="no"?>
<!DOCTYPE svg PUBLIC "-//W3C//DTD SVG 20010904//EN"
 "http://www.w3.org/TR/2001/REC-SVG-20010904/DTD/svg10.dtd">
<svg version="1.0" xmlns="http://www.w3.org/2000/svg"
 width="700.000000pt" height="700.000000pt" viewBox="0 0 700.000000 700.000000"
 preserveAspectRatio="xMidYMid meet">
<metadata>
Created by potrace 1.14, written by Peter Selinger 2001-2017
</metadata>
<g transform="translate(0.000000,700.000000) scale(0.100000,-0.100000)"
fill="#000000" stroke="none">
<path d="M3726 6771 l-226 -226 -223 223 c-122 122 -225 222 -229 222 -6 0
-713 -506 -741 -530 -14 -12 -137 -977 -137 -1072 0 -49 -4 -88 -8 -88 -5 0
-41 11 -82 25 -40 14 -293 66 -561 116 l-488 91 -375 -273 -375 -273 143 -283
143 -283 -81 -44 c-45 -24 -172 -89 -283 -144 l-201 -101 85 -263 c47 -145
111 -344 143 -442 l58 -180 439 -208 c241 -115 480 -223 531 -239 l93 -30 -23
-32 c-12 -18 -35 -49 -51 -70 -16 -20 -136 -234 -267 -474 l-237 -436 42 -131
c195 -608 246 -754 263 -750 51 12 604 95 608 91 2 -2 26 -141 52 -308 l48
-304 50 -7 c27 -3 236 -7 464 -7 l415 -1 342 363 c188 199 363 391 388 427 25
36 49 66 53 67 4 2 28 -28 54 -65 26 -37 202 -230 390 -429 l343 -363 462 0
463 0 5 23 c3 12 26 152 51 312 25 159 47 291 49 293 3 3 552 -82 602 -93 21
-5 29 18 167 437 l145 443 -235 432 c-129 237 -259 465 -289 505 l-53 73 96
33 c54 18 292 126 531 240 l434 207 89 275 c49 151 113 350 142 442 l54 168
-279 142 c-153 79 -279 147 -279 152 0 5 63 133 140 284 77 152 137 279 133
283 -19 17 -728 531 -738 536 -21 7 -975 -175 -1054 -202 -41 -14 -78 -25 -83
-25 -4 0 -8 42 -8 93 0 101 -122 1053 -136 1067 -5 4 -174 127 -375 273 l-367
264 -226 -226z m-123 -2197 c63 -32 96 -65 126 -125 70 -140 18 -302 -116
-361 l-43 -19 0 -645 0 -645 28 15 c49 25 110 80 161 143 141 177 292 544 361
876 l18 91 -21 15 c-62 43 -107 124 -107 194 0 79 57 170 129 206 58 29 106
34 166 16 178 -51 228 -263 93 -392 -18 -17 -45 -36 -59 -42 -23 -8 -28 -18
-34 -63 -9 -67 -58 -269 -91 -373 -58 -189 -159 -415 -240 -542 -19 -29 -34
-56 -34 -59 0 -12 150 75 224 130 146 108 298 280 370 416 l29 56 -26 39 c-79
121 -40 277 85 339 122 61 257 14 314 -109 41 -86 25 -186 -39 -254 -36 -37
-99 -70 -137 -71 -21 0 -32 -13 -68 -83 -127 -244 -389 -493 -648 -617 -187
-90 -335 -124 -534 -123 -226 2 -386 41 -590 143 -246 124 -486 354 -611 584
-35 65 -45 76 -67 76 -71 1 -171 84 -192 159 -23 83 -6 163 48 223 49 54 102
78 176 78 110 0 191 -62 223 -169 19 -65 7 -136 -32 -194 -14 -20 -25 -40 -25
-44 0 -17 106 -172 167 -245 74 -87 186 -185 288 -250 65 -42 148 -88 159 -88
2 0 -18 37 -46 83 -132 218 -244 521 -301 814 -20 103 -24 113 -49 124 -66 27
-138 134 -138 206 0 113 88 217 203 238 98 19 219 -57 253 -157 31 -95 -3
-206 -80 -259 -25 -17 -34 -29 -31 -44 3 -11 16 -74 31 -140 69 -320 222 -671
361 -828 35 -40 119 -107 134 -107 5 0 9 257 9 644 l0 644 -30 12 c-40 17
-116 101 -130 146 -7 20 -10 68 -8 108 3 60 9 82 33 122 32 51 103 107 159
124 42 13 139 4 179 -16z"/>
</g>
</svg>
